# xmcd
#
# Track frame offsets:
#	150
#	12005
#	22162
#	36410
#	47560
#	57130
#	72320
#	89810
#	110350
#	126000
#	137542
#	148875
#	163652
#	175840
#	190640
#	201127
#
# Disc length: 2878 seconds
#
# Revision: 0
# Processed by: cddbd v1.4PL0 Copyright (c) Steve Scherf et al.
# Submitted via: EasyCDDAExtractor 5.0.4.1
#
DISCID=e30b3c10
DTITLE=Michael Jerome Browne - Drive On
DYEAR=2001
DGENRE=blues
TTITLE0=Goin' Where I Never Been Before
TTITLE1=I Love You Emry
TTITLE2=Children
TTITLE3=The Path You Leave Behind
TTITLE4=May You Come And Stay
TTITLE5=Someday My Day Will Come
TTITLE6=I'm A Ram
TTITLE7=Gotta Have You
TTITLE8=That's Where It's At
TTITLE9=No No Blues
TTITLE10=New Morning Blues
TTITLE11=Cancer Ward Blues
TTITLE12=Guitar Mama
TTITLE13=You Missed A Good Man
TTITLE14=He Ain't Got Rhythm
TTITLE15=Journey's End
EXTD=
EXTT0=
EXTT1=
EXTT2=
EXTT3=
EXTT4=
EXTT5=
EXTT6=
EXTT7=
EXTT8=
EXTT9=
EXTT10=
EXTT11=
EXTT12=
EXTT13=
EXTT14=
EXTT15=
PLAYORDER=
